<mxfile host="app.diagrams.net" modified="2023-09-14T00:56:16.222Z" agent="Mozilla/5.0 (Windows NT 10.0; Win64; x64) AppleWebKit/537.36 (KHTML, like Gecko) Chrome/116.0.0.0 Safari/537.36" etag="Lmw4EAoASlTTqK9rEtFr" version="21.7.5" type="github">
  <diagram name="Page-1" id="CP0PfoXOIs4rCZpug_A0">
    <mxGraphModel dx="1323" dy="723" grid="1" gridSize="10" guides="1" tooltips="1" connect="1" arrows="1" fold="1" page="1" pageScale="1" pageWidth="850" pageHeight="1100" math="0" shadow="0">
      <root>
        <mxCell id="0" />
        <mxCell id="1" parent="0" />
        <mxCell id="3KQH8PXXAdi36EpR8eOV-6" style="edgeStyle=orthogonalEdgeStyle;rounded=0;orthogonalLoop=1;jettySize=auto;html=1;entryX=0.5;entryY=0;entryDx=0;entryDy=0;" edge="1" parent="1" source="3KQH8PXXAdi36EpR8eOV-1" target="3KQH8PXXAdi36EpR8eOV-2">
          <mxGeometry relative="1" as="geometry" />
        </mxCell>
        <mxCell id="3KQH8PXXAdi36EpR8eOV-1" value="BOTAO REGISTRO" style="whiteSpace=wrap;html=1;aspect=fixed;" vertex="1" parent="1">
          <mxGeometry x="320" y="110" width="80" height="80" as="geometry" />
        </mxCell>
        <mxCell id="3KQH8PXXAdi36EpR8eOV-8" style="edgeStyle=orthogonalEdgeStyle;rounded=0;orthogonalLoop=1;jettySize=auto;html=1;exitX=1;exitY=0.5;exitDx=0;exitDy=0;entryX=0.5;entryY=0;entryDx=0;entryDy=0;" edge="1" parent="1" source="3KQH8PXXAdi36EpR8eOV-2" target="3KQH8PXXAdi36EpR8eOV-3">
          <mxGeometry relative="1" as="geometry" />
        </mxCell>
        <mxCell id="3KQH8PXXAdi36EpR8eOV-10" style="edgeStyle=orthogonalEdgeStyle;rounded=0;orthogonalLoop=1;jettySize=auto;html=1;entryX=0.448;entryY=-0.054;entryDx=0;entryDy=0;entryPerimeter=0;" edge="1" parent="1" source="3KQH8PXXAdi36EpR8eOV-2" target="3KQH8PXXAdi36EpR8eOV-9">
          <mxGeometry relative="1" as="geometry" />
        </mxCell>
        <mxCell id="3KQH8PXXAdi36EpR8eOV-2" value="SELECIONA&lt;br&gt;EMPRESA&lt;br&gt;OU&lt;br&gt;STARTUP" style="whiteSpace=wrap;html=1;aspect=fixed;" vertex="1" parent="1">
          <mxGeometry x="320" y="259" width="80" height="80" as="geometry" />
        </mxCell>
        <mxCell id="3KQH8PXXAdi36EpR8eOV-15" style="edgeStyle=orthogonalEdgeStyle;rounded=0;orthogonalLoop=1;jettySize=auto;html=1;entryX=0.5;entryY=0;entryDx=0;entryDy=0;" edge="1" parent="1" source="3KQH8PXXAdi36EpR8eOV-3" target="3KQH8PXXAdi36EpR8eOV-14">
          <mxGeometry relative="1" as="geometry" />
        </mxCell>
        <mxCell id="3KQH8PXXAdi36EpR8eOV-3" value="STARTUP" style="whiteSpace=wrap;html=1;aspect=fixed;" vertex="1" parent="1">
          <mxGeometry x="470" y="350" width="80" height="80" as="geometry" />
        </mxCell>
        <mxCell id="3KQH8PXXAdi36EpR8eOV-12" style="edgeStyle=orthogonalEdgeStyle;rounded=0;orthogonalLoop=1;jettySize=auto;html=1;entryX=0.5;entryY=0;entryDx=0;entryDy=0;" edge="1" parent="1" source="3KQH8PXXAdi36EpR8eOV-9" target="3KQH8PXXAdi36EpR8eOV-11">
          <mxGeometry relative="1" as="geometry" />
        </mxCell>
        <mxCell id="3KQH8PXXAdi36EpR8eOV-9" value="EMPRESA" style="whiteSpace=wrap;html=1;aspect=fixed;" vertex="1" parent="1">
          <mxGeometry x="190" y="350" width="80" height="80" as="geometry" />
        </mxCell>
        <mxCell id="3KQH8PXXAdi36EpR8eOV-17" style="edgeStyle=orthogonalEdgeStyle;rounded=0;orthogonalLoop=1;jettySize=auto;html=1;entryX=0.5;entryY=0;entryDx=0;entryDy=0;" edge="1" parent="1" source="3KQH8PXXAdi36EpR8eOV-11" target="3KQH8PXXAdi36EpR8eOV-16">
          <mxGeometry relative="1" as="geometry" />
        </mxCell>
        <mxCell id="3KQH8PXXAdi36EpR8eOV-11" value="QUESTIONÁRIO&lt;br&gt;EMRPESA" style="whiteSpace=wrap;html=1;aspect=fixed;" vertex="1" parent="1">
          <mxGeometry x="185" y="490" width="90" height="90" as="geometry" />
        </mxCell>
        <mxCell id="3KQH8PXXAdi36EpR8eOV-20" style="edgeStyle=orthogonalEdgeStyle;rounded=0;orthogonalLoop=1;jettySize=auto;html=1;entryX=0.5;entryY=0;entryDx=0;entryDy=0;" edge="1" parent="1" source="3KQH8PXXAdi36EpR8eOV-14" target="3KQH8PXXAdi36EpR8eOV-16">
          <mxGeometry relative="1" as="geometry" />
        </mxCell>
        <mxCell id="3KQH8PXXAdi36EpR8eOV-14" value="QUESTIONARIO&lt;br&gt;STARTUP&lt;br&gt;" style="whiteSpace=wrap;html=1;aspect=fixed;" vertex="1" parent="1">
          <mxGeometry x="457.5" y="482.5" width="105" height="105" as="geometry" />
        </mxCell>
        <mxCell id="3KQH8PXXAdi36EpR8eOV-35" style="edgeStyle=orthogonalEdgeStyle;rounded=0;orthogonalLoop=1;jettySize=auto;html=1;entryX=0.5;entryY=0;entryDx=0;entryDy=0;" edge="1" parent="1" source="3KQH8PXXAdi36EpR8eOV-16" target="3KQH8PXXAdi36EpR8eOV-27">
          <mxGeometry relative="1" as="geometry">
            <mxPoint x="210" y="830" as="targetPoint" />
          </mxGeometry>
        </mxCell>
        <mxCell id="3KQH8PXXAdi36EpR8eOV-16" value="FINALIZA&amp;nbsp;&lt;br&gt;O&lt;br&gt;REGISTRO" style="whiteSpace=wrap;html=1;aspect=fixed;" vertex="1" parent="1">
          <mxGeometry x="315" y="657.5" width="90" height="90" as="geometry" />
        </mxCell>
        <mxCell id="3KQH8PXXAdi36EpR8eOV-25" style="edgeStyle=orthogonalEdgeStyle;rounded=0;orthogonalLoop=1;jettySize=auto;html=1;exitX=0.5;exitY=1;exitDx=0;exitDy=0;entryX=1;entryY=0.5;entryDx=0;entryDy=0;" edge="1" parent="1" source="3KQH8PXXAdi36EpR8eOV-21" target="3KQH8PXXAdi36EpR8eOV-27">
          <mxGeometry relative="1" as="geometry">
            <mxPoint x="660.3333333333335" y="800" as="targetPoint" />
          </mxGeometry>
        </mxCell>
        <mxCell id="3KQH8PXXAdi36EpR8eOV-21" value="BOTAO&lt;br&gt;LOGAR" style="whiteSpace=wrap;html=1;aspect=fixed;" vertex="1" parent="1">
          <mxGeometry x="620" y="110" width="80" height="80" as="geometry" />
        </mxCell>
        <mxCell id="3KQH8PXXAdi36EpR8eOV-23" style="edgeStyle=orthogonalEdgeStyle;rounded=0;orthogonalLoop=1;jettySize=auto;html=1;entryX=0.5;entryY=0;entryDx=0;entryDy=0;" edge="1" parent="1" source="3KQH8PXXAdi36EpR8eOV-22" target="3KQH8PXXAdi36EpR8eOV-1">
          <mxGeometry relative="1" as="geometry" />
        </mxCell>
        <mxCell id="3KQH8PXXAdi36EpR8eOV-24" style="edgeStyle=orthogonalEdgeStyle;rounded=0;orthogonalLoop=1;jettySize=auto;html=1;entryX=0.5;entryY=0;entryDx=0;entryDy=0;" edge="1" parent="1" source="3KQH8PXXAdi36EpR8eOV-22" target="3KQH8PXXAdi36EpR8eOV-21">
          <mxGeometry relative="1" as="geometry" />
        </mxCell>
        <mxCell id="3KQH8PXXAdi36EpR8eOV-22" value="INICIO&lt;br&gt;SITEMA" style="whiteSpace=wrap;html=1;aspect=fixed;" vertex="1" parent="1">
          <mxGeometry x="430" y="10" width="80" height="80" as="geometry" />
        </mxCell>
        <mxCell id="3KQH8PXXAdi36EpR8eOV-34" style="edgeStyle=orthogonalEdgeStyle;rounded=0;orthogonalLoop=1;jettySize=auto;html=1;entryX=0.5;entryY=0;entryDx=0;entryDy=0;" edge="1" parent="1" source="3KQH8PXXAdi36EpR8eOV-27" target="3KQH8PXXAdi36EpR8eOV-29">
          <mxGeometry relative="1" as="geometry" />
        </mxCell>
        <mxCell id="3KQH8PXXAdi36EpR8eOV-36" style="edgeStyle=orthogonalEdgeStyle;rounded=0;orthogonalLoop=1;jettySize=auto;html=1;exitX=0.5;exitY=1;exitDx=0;exitDy=0;entryX=0.5;entryY=0;entryDx=0;entryDy=0;" edge="1" parent="1" source="3KQH8PXXAdi36EpR8eOV-27" target="3KQH8PXXAdi36EpR8eOV-30">
          <mxGeometry relative="1" as="geometry" />
        </mxCell>
        <mxCell id="3KQH8PXXAdi36EpR8eOV-27" value="DASHBOARD&lt;br&gt;" style="whiteSpace=wrap;html=1;aspect=fixed;" vertex="1" parent="1">
          <mxGeometry x="310" y="840" width="90" height="90" as="geometry" />
        </mxCell>
        <mxCell id="3KQH8PXXAdi36EpR8eOV-29" value="PERFIL" style="whiteSpace=wrap;html=1;aspect=fixed;" vertex="1" parent="1">
          <mxGeometry x="310" y="1000" width="90" height="90" as="geometry" />
        </mxCell>
        <mxCell id="3KQH8PXXAdi36EpR8eOV-30" value="MATCHMAKING" style="whiteSpace=wrap;html=1;aspect=fixed;" vertex="1" parent="1">
          <mxGeometry x="457.5" y="1000" width="90" height="90" as="geometry" />
        </mxCell>
      </root>
    </mxGraphModel>
  </diagram>
</mxfile>
